<?xml version="1.0" encoding="utf-8"?>
<!-- Generator: Adobe Illustrator 16.0.0, SVG Export Plug-In . SVG Version: 6.00 Build 0)  -->
<!DOCTYPE svg PUBLIC "-//W3C//DTD SVG 1.1//EN" "http://www.w3.org/Graphics/SVG/1.1/DTD/svg11.dtd">
<svg version="1.1" id="Layer_1" xmlns="http://www.w3.org/2000/svg" xmlns:xlink="http://www.w3.org/1999/xlink" x="0px" y="0px"
	 width="734.791px" height="115.646px" viewBox="0 0 734.791 115.646" enable-background="new 0 0 734.791 115.646"
	 xml:space="preserve">
<g>
	<g>
		<g>
			<path fill="#DB4A26" d="M55.934,113.757C25.092,113.757,0,88.667,0,57.823C0,26.981,25.092,1.889,55.934,1.889
				s55.934,25.092,55.934,55.934C111.866,88.667,86.775,113.757,55.934,113.757z M55.934,9.823
				c-26.468,0-48.002,21.533-48.002,48.002c0,26.467,21.534,48,48.002,48c26.469,0,48.002-21.533,48.002-48
				C103.936,31.357,82.402,9.823,55.934,9.823z"/>
		</g>
		<g>
			<g>
				<path fill="#DB4A26" stroke="#DB4A26" stroke-width="2" stroke-miterlimit="10" d="M60.905,38.079
					c3.507-5.795,13.708-6.791,20.378-2.824c8.921,5.307,12.231,16.854,7.721,27.418c-5.132,12.019-14.577,20.289-24.766,27.799
					c-8.372,6.172-8.479,6.084-16.894-0.233c-9.051-6.795-17.481-14.207-22.909-24.396c-3.829-7.186-5.06-14.608-1.329-22.252
					c3.479-7.133,9.345-10.709,17.192-10.762c8.002-0.057,13.918,3.75,17.929,10.588c0.245,0.42,0.122,1.059-0.608,2.168
					c-0.846-0.953-1.723-1.883-2.532-2.867c-6.168-7.494-15.726-9.84-23.011-5.637c-7.601,4.387-10.787,13.906-7.646,22.977
					c2.759,7.97,7.961,14.275,14.12,19.757c4.787,4.26,9.945,8.118,15.086,11.961c0.934,0.698,3.009,1.096,3.815,0.545
					c12.018-8.197,23.587-16.922,29.531-30.896c2.527-5.94,2.431-11.957-0.673-17.76C82.193,35.969,72.869,33,64.283,36.631
					C63.155,37.107,62.031,37.594,60.905,38.079z"/>
			</g>
			<g>
				<path fill="#DB4A26" stroke="#DB4A26" stroke-width="2" stroke-miterlimit="10" d="M28.475,56.032
					c-1.979-10.076,4.829-17.728,12.873-15.58c-3.028,1.793-6.669,2.992-8.801,5.483C30.479,48.35,29.964,52.094,28.475,56.032z"/>
			</g>
		</g>
	</g>
	<g>
		<g>
			<path fill="#4E5051" d="M407.193,57.825c0-24.238,18.381-42.945,43.106-42.945c15.778,0,29.768,8.297,36.763,20.822
				l-21.309,12.361c-2.767-5.691-8.622-9.109-15.78-9.109c-10.572,0-18.381,7.646-18.381,18.871
				c0,11.223,7.809,18.869,18.381,18.869c7.158,0,13.178-3.416,15.78-9.111l21.309,12.201
				c-6.995,12.688-20.822,20.981-36.763,20.981C425.573,100.766,407.193,82.061,407.193,57.825z"/>
			<path fill="#4E5051" d="M578.64,17.157v81.334h-24.4v-7.646c-5.368,6.181-13.337,9.92-24.237,9.92
				c-21.31,0-38.875-18.704-38.875-42.94c0-24.238,17.565-42.945,38.875-42.945c10.9,0,18.869,3.742,24.237,9.924v-7.646
				L578.64,17.157L578.64,17.157z M554.239,57.825c0-12.201-8.135-19.847-19.355-19.847c-11.225,0-19.356,7.646-19.356,19.847
				c0,12.199,8.134,19.846,19.356,19.846C546.104,77.671,554.239,70.025,554.239,57.825z"/>
			<path fill="#4E5051" d="M645.326,15.531v27.653c-10.084-1.627-24.398,2.439-24.398,18.543v36.765h-24.4V17.158h24.4v14.477
				C624.183,20.736,635.078,15.531,645.326,15.531z"/>
			<path fill="#4E5051" d="M695.589,78.969c6.67,0,12.362-2.602,15.615-6.18l19.521,11.223
				c-7.971,11.062-20.007,16.754-35.463,16.754c-27.816,0-45.059-18.704-45.059-42.94c0-24.238,17.566-42.945,43.271-42.945
				c23.75,0,41.316,18.383,41.316,42.945c0,3.416-0.325,6.668-0.977,9.758h-57.747C679.158,76.042,686.642,78.969,695.589,78.969z
				 M710.555,49.366c-2.604-9.437-9.923-12.853-17.243-12.853c-9.272,0-15.453,4.556-17.729,12.853H710.555z"/>
		</g>
		<g>
			<g>
				<polygon fill="#4E5051" points="195.421,45.786 174.531,45.786 174.531,14.247 150.704,14.247 150.704,101.62 174.531,101.62 
					174.531,68.907 195.421,68.907 195.421,101.62 219.248,101.62 219.248,14.247 195.421,14.247 				"/>
				<rect x="240.19" y="14.247" fill="#4E5051" width="23.828" height="87.373"/>
				<path fill="#4E5051" d="M318.136,47.54c-13.052-3.951-13.052-6.109-13.052-7.844c0-2.271,2.482-3.738,6.325-3.738
					c5.821,0,9.183,2.275,11.985,8.115l1.175,2.443l20.239-11.844l-1.035-2.089c-6.382-12.888-17.875-19.984-32.364-19.984
					c-14.983,0-30.152,9.469-30.152,27.564c0,17.907,13.934,24.09,26.073,27.476c12.93,3.572,15.229,5.219,15.229,8.063
					c0,3.478-4.72,4.207-8.679,4.207c-7.324,0-12.092-3.146-15.004-9.904l-1.113-2.584l-20.51,11.889l0.75,1.983
					c5.287,13.963,18.148,21.972,35.288,21.972c20.104,0,33.096-10.911,33.096-27.799C346.389,56.067,330.723,51.339,318.136,47.54z
					"/>
			</g>
			<path fill="#4E5051" d="M352.123,52.322h44.717v16.942h-44.717V52.322z"/>
		</g>
	</g>
</g>
</svg>
